Coordinates
version=1
nRows=8
nColumns=46
inDegrees=yes

Units are S.I. units (second, meters, Newtons, ...)
Angles are in degrees.

endheader
time	pelvis_tilt	pelvis_list	pelvis_rotation	pelvis_tx	pelvis_ty	pelvis_tz	bb_angle	bb_tx	bb_ty	bb_tz	hip_flexion_r	hip_adduction_r	hip_rotation_r	knee_angle_r	knee_angle_r_beta	ankle_angle_r	subtalar_angle_r	mtp_angle_r	crank_angle_r	hip_flexion_l	hip_adduction_l	hip_rotation_l	knee_angle_l	knee_angle_l_beta	ankle_angle_l	subtalar_angle_l	mtp_angle_l	crank_angle_l	lumbar_extension	lumbar_bending	lumbar_rotation	arm_flex_r	arm_add_r	arm_rot_r	elbow_flex_r	pro_sup_r	wrist_flex_r	wrist_dev_r	arm_flex_l	arm_add_l	arm_rot_l	elbow_flex_l	pro_sup_l	wrist_flex_l	wrist_dev_l
      7.50500000	    -22.79327781	      6.79386226	     10.96432166	      0.36219908	      1.11443799	     -0.25934104	      0.00000000	      0.50000000	      0.00000000	      0.25000000	     41.64405588	    -14.64962974	     -2.46084006	     56.99606669	      0.99476902	    -29.81628822	     -4.52301559	      0.00000000	      0.00000000	     73.00318120	     -1.81632984	     -2.76168207	     81.05314825	      1.41464431	      8.04047081	      2.60967876	      0.00000000	      0.00000000	    -66.65470699	     -8.55162718	     -4.56489608	     62.48579018	    -28.73575955	     28.37956272	     64.47637189	     45.49716742	      0.00000000	      0.00000000	     76.21488591	     -5.03010580	     29.95437228	     63.70122009	     44.58900585	      0.00000000	      0.00000000
      7.51000000	    -22.74951673	      6.17484302	     10.84903103	      0.36196865	      1.11443291	     -0.25920838	      0.00000000	      0.50000000	      0.00000000	      0.25000000	     42.80646362	    -13.85663934	     -1.74705837	     59.61000005	      1.04039077	    -29.33109578	     -4.08801942	      0.00000000	      0.00000000	     71.76172095	     -2.25834535	     -2.99062981	     78.42056662	      1.36869709	      7.64861761	      2.22470782	      0.00000000	      0.00000000	    -66.50466934	     -8.40054396	     -4.62281494	     63.20595419	    -27.79447813	     29.03712694	     62.92541313	     45.36561482	      0.00000000	      0.00000000	     75.48024072	     -5.22681956	     28.14712721	     64.93960401	     44.60315322	      0.00000000	      0.00000000
      7.51500000	    -22.57771483	      5.36222631	     10.75001411	      0.36195083	      1.11430471	     -0.25907856	      0.00000000	      0.50000000	      0.00000000	      0.25000000	     43.77657621	    -12.88509908	     -1.36430554	     62.12899032	      1.08435544	    -28.95968531	     -4.21274118	      0.00000000	      0.00000000	     70.46499933	     -2.85754861	     -3.06246522	     75.87594871	      1.32428513	      7.15914847	      2.17167746	      0.00000000	      0.00000000	    -66.46976392	     -8.14927554	     -4.04271200	     63.40488550	    -27.75272402	     29.10871704	     62.79179243	     45.35547028	      0.00000000	      0.00000000	     75.40760628	     -5.30364815	     28.10688002	     65.09726617	     44.62604720	      0.00000000	      0.00000000
      7.52000000	    -22.55933378	      4.78752254	     10.55908406	      0.36184685	      1.11385330	     -0.25890001	      0.00000000	      0.50000000	      0.00000000	      0.25000000	     44.99807258	    -12.05139577	     -0.65271095	     64.69196019	      1.12908770	    -28.38393833	     -3.83931018	      0.00000000	      0.00000000	     69.20640641	     -3.41100500	     -3.41086470	     73.24579696	      1.27838032	      6.39933002	      1.87458065	      0.00000000	      0.00000000	    -66.31213305	     -8.09257461	     -3.73209664	     63.58535216	    -27.63468894	     29.60937885	     62.32170860	     45.35153494	      0.00000000	      0.00000000	     75.24917249	     -5.54745459	     27.96883485	     65.65215735	     44.70531983	      0.00000000	      0.00000000
      7.52500000	    -22.45179839	      3.99696376	     10.60081043	      0.36146025	      1.11313703	     -0.25944274	      0.00000000	      0.50000000	      0.00000000	      0.25000000	     46.08958986	    -11.33320623	     -0.57137979	     67.19098217	      1.17270387	    -27.99137506	     -3.74182633	      0.00000000	      0.00000000	     68.04272178	     -3.80802336	     -3.27089258	     70.74244843	      1.23468865	      5.64418407	      2.50071548	      0.00000000	      0.00000000	    -66.17498798	     -7.65080708	     -3.30372371	     63.92002084	    -27.60873016	     29.77302611	     62.17644644	     45.34934047	      0.00000000	      0.00000000	     75.11715877	     -5.77020303	     27.87393174	     65.88552370	     44.73607413	      0.00000000	      0.00000000
      7.53000000	    -22.36620552	      3.38281442	     10.50296867	      0.36130419	      1.11209967	     -0.25953401	      0.00000000	      0.50000000	      0.00000000	      0.25000000	     47.29300515	    -10.59801469	     -0.12513406	     69.74945412	      1.21735763	    -27.40238892	     -3.23500269	      0.00000000	      0.00000000	     66.81654710	     -4.28325873	     -3.28365423	     68.27557665	      1.19163361	      4.83905428	      3.15624615	      0.00000000	      0.00000000	    -66.00788482	     -7.39390609	     -3.02699268	     64.14142473	    -27.44292865	     30.27147232	     61.85402754	     45.36128649	      0.00000000	      0.00000000	     74.85419676	     -6.17238051	     27.69568026	     66.46880755	     44.81715595	      0.00000000	      0.00000000
      7.53500000	    -22.22465876	      2.65139778	     10.44724377	      0.36123382	      1.11095815	     -0.25975298	      0.00000000	      0.50000000	      0.00000000	      0.25000000	     48.40008264	     -9.82393419	      0.06220003	     72.19352300	      1.26001467	    -26.96590411	     -2.97964427	      0.00000000	      0.00000000	     65.59561594	     -4.80949784	     -3.21468055	     65.87653027	      1.14976235	      3.79882258	      3.63679997	      0.00000000	      0.00000000	    -65.83801024	     -7.01096508	     -2.61069574	     64.38897820	    -27.28465431	     30.63700864	     61.59370067	     45.36391643	      0.00000000	      0.00000000	     74.54566718	     -6.57625953	     27.57406158	     66.90700049	     44.88096046	      0.00000000	      0.00000000
      7.54000000	    -21.95852181	      1.90714742	     10.43749247	      0.36093725	      1.10959017	     -0.26005772	      0.00000000	      0.50000000	      0.00000000	      0.25000000	     49.43625212	     -9.12246929	      0.02977948	     74.67951947	      1.30340350	    -26.48972832	     -2.84281492	      0.00000000	      0.00000000	     64.31892335	     -5.27457394	     -2.92824725	     63.55388776	      1.10922459	      2.61524810	      4.35305106	      0.00000000	      0.00000000	    -65.74013476	     -6.54296623	     -2.11583157	     64.59353822	    -27.18756442	     30.86696727	     61.42344613	     45.36315257	      0.00000000	      0.00000000	     74.23617470	     -6.96214648	     27.47334166	     67.21425217	     44.92550103	      0.00000000	      0.00000000
